<svg xmlns="http://www.w3.org/2000/svg" width="738" height="2542" viewBox="0 0 738 2542" role="img" aria-label="Components on the Analytics pages">
<title>Components on the Analytics pages</title>

<style>
  .bg { fill: #ffffff; }
  text { font-family: system-ui, -apple-system, "Segoe UI", Roboto, Arial, sans-serif; font-size: 13px; dominant-baseline: central; }
  .edge { fill: none; stroke: #9aa3b2; stroke-width: 1.5; }
  .note { font-size: 12px; fill: #5b6475; }
  .page rect { fill: #fbe9e8; stroke: #c4302b; stroke-width: 1.5; }
  .page text { fill: #c4302b; font-weight: 700; }
  .tab rect { fill: #e6effa; stroke: #2f6fb3; stroke-width: 1.2; }
  .tab text { fill: #1f4f85; font-weight: 600; }
  .sub rect { fill: #f3f7fc; stroke: #7da3cf; stroke-width: 1; stroke-dasharray: 4 3; }
  .sub text { fill: #1f4f85; }
  .comp rect { fill: #efe9fa; stroke: #6a4bb3; stroke-width: 1.2; }
  .comp text { fill: #3f2a80; }
  .local rect { fill: #f0f2f5; stroke: #8a93a3; stroke-width: 1; stroke-dasharray: 4 3; }
  .local text { fill: #1c2330; font-style: italic; }
  g rect.badge { fill: #ffffff; stroke: #9aa3b2; stroke-width: 1; stroke-dasharray: none; }
  g text.badge-text { font-size: 10px; font-weight: 700; font-style: normal; fill: #5b6475; text-anchor: middle; }
  .legend-text { font-size: 12px; fill: #5b6475; }
  @media (prefers-color-scheme: dark) {
    .bg { fill: #1a1f27; }
    .edge { stroke: #5b6475; }
    .note, .legend-text { fill: #9aa3b2; }
    .page rect { fill: #3a1e1d; stroke: #ff6b63; } .page text { fill: #ff8a80; }
    .tab rect { fill: #1b2a3d; stroke: #7db3ef; } .tab text { fill: #a9cdf5; }
    .sub rect { fill: #17212e; stroke: #4f79a8; } .sub text { fill: #a9cdf5; }
    .comp rect { fill: #2a2340; stroke: #b9a2f5; } .comp text { fill: #d6c9fb; }
    .local rect { fill: #222833; stroke: #6b7486; } .local text { fill: #e6e9ef; }
    g rect.badge { fill: #1a1f27; stroke: #5b6475; } g text.badge-text { fill: #9aa3b2; }
  }
</style>
<rect class="bg" width="738" height="2542" rx="10"/>
<path class="edge" d="M26.0,44.0 V68.0 H42.0"/>
<path class="edge" d="M52.0,82.0 V106.0 H68.0"/>
<path class="edge" d="M26.0,44.0 V144.0 H42.0"/>
<path class="edge" d="M26.0,44.0 V182.0 H42.0"/>
<path class="edge" d="M52.0,196.0 V220.0 H68.0"/>
<path class="edge" d="M78.0,234.0 V258.0 H94.0"/>
<path class="edge" d="M78.0,234.0 V296.0 H94.0"/>
<path class="edge" d="M52.0,196.0 V334.0 H68.0"/>
<path class="edge" d="M78.0,348.0 V372.0 H94.0"/>
<path class="edge" d="M78.0,348.0 V410.0 H94.0"/>
<path class="edge" d="M104.0,424.0 V448.0 H120.0"/>
<path class="edge" d="M78.0,348.0 V486.0 H94.0"/>
<path class="edge" d="M78.0,348.0 V524.0 H94.0"/>
<path class="edge" d="M78.0,348.0 V562.0 H94.0"/>
<path class="edge" d="M78.0,348.0 V600.0 H94.0"/>
<path class="edge" d="M78.0,348.0 V638.0 H94.0"/>
<path class="edge" d="M52.0,196.0 V676.0 H68.0"/>
<path class="edge" d="M78.0,690.0 V714.0 H94.0"/>
<path class="edge" d="M26.0,44.0 V752.0 H42.0"/>
<path class="edge" d="M52.0,766.0 V790.0 H68.0"/>
<path class="edge" d="M78.0,804.0 V828.0 H94.0"/>
<path class="edge" d="M78.0,804.0 V866.0 H94.0"/>
<path class="edge" d="M52.0,766.0 V904.0 H68.0"/>
<path class="edge" d="M78.0,918.0 V942.0 H94.0"/>
<path class="edge" d="M78.0,918.0 V980.0 H94.0"/>
<path class="edge" d="M104.0,994.0 V1018.0 H120.0"/>
<path class="edge" d="M78.0,918.0 V1056.0 H94.0"/>
<path class="edge" d="M78.0,918.0 V1094.0 H94.0"/>
<path class="edge" d="M104.0,1108.0 V1132.0 H120.0"/>
<path class="edge" d="M78.0,918.0 V1170.0 H94.0"/>
<path class="edge" d="M104.0,1184.0 V1208.0 H120.0"/>
<path class="edge" d="M78.0,918.0 V1246.0 H94.0"/>
<path class="edge" d="M104.0,1260.0 V1284.0 H120.0"/>
<path class="edge" d="M104.0,1260.0 V1322.0 H120.0"/>
<path class="edge" d="M104.0,1260.0 V1360.0 H120.0"/>
<path class="edge" d="M104.0,1260.0 V1398.0 H120.0"/>
<path class="edge" d="M104.0,1260.0 V1436.0 H120.0"/>
<path class="edge" d="M78.0,918.0 V1474.0 H94.0"/>
<path class="edge" d="M104.0,1488.0 V1512.0 H120.0"/>
<path class="edge" d="M104.0,1488.0 V1550.0 H120.0"/>
<path class="edge" d="M104.0,1488.0 V1588.0 H120.0"/>
<path class="edge" d="M104.0,1488.0 V1626.0 H120.0"/>
<path class="edge" d="M52.0,766.0 V1664.0 H68.0"/>
<path class="edge" d="M78.0,1678.0 V1702.0 H94.0"/>
<path class="edge" d="M52.0,766.0 V1740.0 H68.0"/>
<path class="edge" d="M52.0,766.0 V1778.0 H68.0"/>
<path class="edge" d="M78.0,1792.0 V1816.0 H94.0"/>
<path class="edge" d="M52.0,766.0 V1854.0 H68.0"/>
<path class="edge" d="M78.0,1868.0 V1892.0 H94.0"/>
<path class="edge" d="M52.0,766.0 V1930.0 H68.0"/>
<path class="edge" d="M78.0,1944.0 V1968.0 H94.0"/>
<path class="edge" d="M78.0,1944.0 V2006.0 H94.0"/>
<path class="edge" d="M78.0,1944.0 V2044.0 H94.0"/>
<path class="edge" d="M26.0,44.0 V2082.0 H42.0"/>
<path class="edge" d="M52.0,2096.0 V2120.0 H68.0"/>
<path class="edge" d="M78.0,2134.0 V2158.0 H94.0"/>
<path class="edge" d="M104.0,2172.0 V2196.0 H120.0"/>
<path class="edge" d="M78.0,2134.0 V2234.0 H94.0"/>
<path class="edge" d="M26.0,44.0 V2272.0 H42.0"/>
<path class="edge" d="M52.0,2286.0 V2310.0 H68.0"/>
<path class="edge" d="M78.0,2324.0 V2348.0 H94.0"/>
<path class="edge" d="M104.0,2362.0 V2386.0 H120.0"/>
<path class="edge" d="M104.0,2362.0 V2424.0 H120.0"/>
<path class="edge" d="M78.0,2324.0 V2462.0 H94.0"/>
<g class="page"><rect x="16.0" y="16.0" width="196.3" height="28" rx="6"/><text x="28.0" y="30.0">Analytics page</text><rect class="badge" x="150.3" y="22.0" width="16" height="16" rx="3"/><text class="badge-text" x="158.3" y="30.5">C</text><rect class="badge" x="170.3" y="22.0" width="16" height="16" rx="3"/><text class="badge-text" x="178.3" y="30.5">P</text><rect class="badge" x="190.3" y="22.0" width="16" height="16" rx="3"/><text class="badge-text" x="198.3" y="30.5">V</text></g>
<g class="comp"><rect x="42.0" y="54.0" width="157.6" height="28" rx="6"/><text x="54.0" y="68.0">DetailHeader</text><rect class="badge" x="157.6" y="60.0" width="16" height="16" rx="3"/><text class="badge-text" x="165.6" y="68.5">P</text><rect class="badge" x="177.6" y="60.0" width="16" height="16" rx="3"/><text class="badge-text" x="185.6" y="68.5">V</text></g>
<g class="local"><rect x="68.0" y="92.0" width="164.8" height="28" rx="6"/><text x="80.0" y="106.0">DescriptionBlock</text><rect class="badge" x="210.8" y="98.0" width="16" height="16" rx="3"/><text class="badge-text" x="218.8" y="106.5">V</text></g>
<g class="comp"><rect x="42.0" y="130.0" width="119.2" height="28" rx="6"/><text x="54.0" y="144.0">Tabs</text><rect class="badge" x="99.2" y="136.0" width="16" height="16" rx="3"/><text class="badge-text" x="107.2" y="144.5">C</text><rect class="badge" x="119.2" y="136.0" width="16" height="16" rx="3"/><text class="badge-text" x="127.2" y="144.5">P</text><rect class="badge" x="139.2" y="136.0" width="16" height="16" rx="3"/><text class="badge-text" x="147.2" y="144.5">V</text></g>
<g class="tab"><rect x="42.0" y="168.0" width="188.6" height="28" rx="6"/><text x="54.0" y="182.0">Analytics tab</text><rect class="badge" x="168.6" y="174.0" width="16" height="16" rx="3"/><text class="badge-text" x="176.6" y="182.5">C</text><rect class="badge" x="188.6" y="174.0" width="16" height="16" rx="3"/><text class="badge-text" x="196.6" y="182.5">P</text><rect class="badge" x="208.6" y="174.0" width="16" height="16" rx="3"/><text class="badge-text" x="216.6" y="182.5">V</text></g>
<g class="comp"><rect x="68.0" y="206.0" width="155.7" height="28" rx="6"/><text x="80.0" y="220.0">FilterBar</text><rect class="badge" x="161.7" y="212.0" width="16" height="16" rx="3"/><text class="badge-text" x="169.7" y="220.5">C</text><rect class="badge" x="181.7" y="212.0" width="16" height="16" rx="3"/><text class="badge-text" x="189.7" y="220.5">P</text><rect class="badge" x="201.7" y="212.0" width="16" height="16" rx="3"/><text class="badge-text" x="209.7" y="220.5">V</text></g>
<g class="comp"><rect x="94.0" y="244.0" width="175.6" height="28" rx="6"/><text x="106.0" y="258.0">PeriodSelect</text><rect class="badge" x="207.6" y="250.0" width="16" height="16" rx="3"/><text class="badge-text" x="215.6" y="258.5">C</text><rect class="badge" x="227.6" y="250.0" width="16" height="16" rx="3"/><text class="badge-text" x="235.6" y="258.5">P</text><rect class="badge" x="247.6" y="250.0" width="16" height="16" rx="3"/><text class="badge-text" x="255.6" y="258.5">V</text></g>
<g class="comp"><rect x="94.0" y="282.0" width="194.1" height="28" rx="6"/><text x="106.0" y="296.0">ContentTypeSelect</text><rect class="badge" x="246.1" y="288.0" width="16" height="16" rx="3"/><text class="badge-text" x="254.1" y="296.5">C</text><rect class="badge" x="266.1" y="288.0" width="16" height="16" rx="3"/><text class="badge-text" x="274.1" y="296.5">P</text></g>
<g class="comp"><rect x="68.0" y="320.0" width="157.6" height="28" rx="6"/><text x="80.0" y="334.0">AnalyticsTab</text><rect class="badge" x="183.6" y="326.0" width="16" height="16" rx="3"/><text class="badge-text" x="191.6" y="334.5">C</text><rect class="badge" x="203.6" y="326.0" width="16" height="16" rx="3"/><text class="badge-text" x="211.6" y="334.5">P</text></g>
<g class="comp"><rect x="94.0" y="358.0" width="162.9" height="28" rx="6"/><text x="106.0" y="372.0">VideoStatsBar</text><rect class="badge" x="214.9" y="364.0" width="16" height="16" rx="3"/><text class="badge-text" x="222.9" y="372.5">C</text><rect class="badge" x="234.9" y="364.0" width="16" height="16" rx="3"/><text class="badge-text" x="242.9" y="372.5">P</text></g>
<g class="comp"><rect x="94.0" y="396.0" width="170.2" height="28" rx="6"/><text x="106.0" y="410.0">AnalyticsChart</text><rect class="badge" x="222.2" y="402.0" width="16" height="16" rx="3"/><text class="badge-text" x="230.2" y="410.5">C</text><rect class="badge" x="242.2" y="402.0" width="16" height="16" rx="3"/><text class="badge-text" x="250.2" y="410.5">P</text></g>
<g class="comp"><rect x="120.0" y="434.0" width="148.3" height="28" rx="6"/><text x="132.0" y="448.0">UploadStrip</text><rect class="badge" x="226.3" y="440.0" width="16" height="16" rx="3"/><text class="badge-text" x="234.3" y="448.5">C</text><rect class="badge" x="246.3" y="440.0" width="16" height="16" rx="3"/><text class="badge-text" x="254.3" y="448.5">P</text></g>
<g class="comp"><rect x="94.0" y="472.0" width="162.9" height="28" rx="6"/><text x="106.0" y="486.0">TopVideosList</text><rect class="badge" x="214.9" y="478.0" width="16" height="16" rx="3"/><text class="badge-text" x="222.9" y="486.5">C</text><rect class="badge" x="234.9" y="478.0" width="16" height="16" rx="3"/><text class="badge-text" x="242.9" y="486.5">P</text></g>
<text class="note" x="452.9" y="486.0">Top 10 Videos by Watch Time / Views</text>
<g class="comp"><rect x="94.0" y="510.0" width="192.1" height="28" rx="6"/><text x="106.0" y="524.0">TopPerformersCard</text><rect class="badge" x="244.1" y="516.0" width="16" height="16" rx="3"/><text class="badge-text" x="252.1" y="524.5">C</text><rect class="badge" x="264.1" y="516.0" width="16" height="16" rx="3"/><text class="badge-text" x="272.1" y="524.5">P</text></g>
<text class="note" x="452.9" y="524.0">Top Videos (Last 7 Days)</text>
<g class="comp"><rect x="94.0" y="548.0" width="192.1" height="28" rx="6"/><text x="106.0" y="562.0">TopPerformersCard</text><rect class="badge" x="244.1" y="554.0" width="16" height="16" rx="3"/><text class="badge-text" x="252.1" y="562.5">C</text><rect class="badge" x="264.1" y="554.0" width="16" height="16" rx="3"/><text class="badge-text" x="272.1" y="562.5">P</text></g>
<text class="note" x="452.9" y="562.0">Top Shorts (Last 7 Days)</text>
<g class="comp"><rect x="94.0" y="586.0" width="192.1" height="28" rx="6"/><text x="106.0" y="600.0">VideoCarouselCard</text><rect class="badge" x="244.1" y="592.0" width="16" height="16" rx="3"/><text class="badge-text" x="252.1" y="600.5">C</text><rect class="badge" x="264.1" y="592.0" width="16" height="16" rx="3"/><text class="badge-text" x="272.1" y="600.5">P</text></g>
<text class="note" x="452.9" y="600.0">Latest Videos</text>
<g class="comp"><rect x="94.0" y="624.0" width="192.1" height="28" rx="6"/><text x="106.0" y="638.0">VideoCarouselCard</text><rect class="badge" x="244.1" y="630.0" width="16" height="16" rx="3"/><text class="badge-text" x="252.1" y="638.5">C</text><rect class="badge" x="264.1" y="630.0" width="16" height="16" rx="3"/><text class="badge-text" x="272.1" y="638.5">P</text></g>
<text class="note" x="452.9" y="638.0">Latest Shorts</text>
<g class="comp"><rect x="68.0" y="662.0" width="150.2" height="28" rx="6"/><text x="80.0" y="676.0">AnalyticsChart</text><rect class="badge" x="196.2" y="668.0" width="16" height="16" rx="3"/><text class="badge-text" x="204.2" y="676.5">V</text></g>
<g class="comp"><rect x="94.0" y="700.0" width="128.3" height="28" rx="6"/><text x="106.0" y="714.0">UploadStrip</text><rect class="badge" x="200.3" y="706.0" width="16" height="16" rx="3"/><text class="badge-text" x="208.3" y="714.5">V</text></g>
<g class="tab"><rect x="42.0" y="738.0" width="235.0" height="28" rx="6"/><text x="54.0" y="752.0">Traffic Sources tab</text><rect class="badge" x="215.0" y="744.0" width="16" height="16" rx="3"/><text class="badge-text" x="223.0" y="752.5">C</text><rect class="badge" x="235.0" y="744.0" width="16" height="16" rx="3"/><text class="badge-text" x="243.0" y="752.5">P</text><rect class="badge" x="255.0" y="744.0" width="16" height="16" rx="3"/><text class="badge-text" x="263.0" y="752.5">V</text></g>
<g class="comp"><rect x="68.0" y="776.0" width="155.7" height="28" rx="6"/><text x="80.0" y="790.0">FilterBar</text><rect class="badge" x="161.7" y="782.0" width="16" height="16" rx="3"/><text class="badge-text" x="169.7" y="790.5">C</text><rect class="badge" x="181.7" y="782.0" width="16" height="16" rx="3"/><text class="badge-text" x="189.7" y="790.5">P</text><rect class="badge" x="201.7" y="782.0" width="16" height="16" rx="3"/><text class="badge-text" x="209.7" y="790.5">V</text></g>
<g class="comp"><rect x="94.0" y="814.0" width="175.6" height="28" rx="6"/><text x="106.0" y="828.0">PeriodSelect</text><rect class="badge" x="207.6" y="820.0" width="16" height="16" rx="3"/><text class="badge-text" x="215.6" y="828.5">C</text><rect class="badge" x="227.6" y="820.0" width="16" height="16" rx="3"/><text class="badge-text" x="235.6" y="828.5">P</text><rect class="badge" x="247.6" y="820.0" width="16" height="16" rx="3"/><text class="badge-text" x="255.6" y="828.5">V</text></g>
<g class="comp"><rect x="94.0" y="852.0" width="194.1" height="28" rx="6"/><text x="106.0" y="866.0">ContentTypeSelect</text><rect class="badge" x="246.1" y="858.0" width="16" height="16" rx="3"/><text class="badge-text" x="254.1" y="866.5">C</text><rect class="badge" x="266.1" y="858.0" width="16" height="16" rx="3"/><text class="badge-text" x="274.1" y="866.5">P</text></g>
<g class="comp"><rect x="68.0" y="890.0" width="194.1" height="28" rx="6"/><text x="80.0" y="904.0">TrafficSourcesTab</text><rect class="badge" x="220.1" y="896.0" width="16" height="16" rx="3"/><text class="badge-text" x="228.1" y="904.5">C</text><rect class="badge" x="240.1" y="896.0" width="16" height="16" rx="3"/><text class="badge-text" x="248.1" y="904.5">P</text></g>
<g class="comp"><rect x="94.0" y="928.0" width="162.9" height="28" rx="6"/><text x="106.0" y="942.0">VideoStatsBar</text><rect class="badge" x="214.9" y="934.0" width="16" height="16" rx="3"/><text class="badge-text" x="222.9" y="942.5">C</text><rect class="badge" x="234.9" y="934.0" width="16" height="16" rx="3"/><text class="badge-text" x="242.9" y="942.5">P</text></g>
<g class="comp"><rect x="94.0" y="966.0" width="199.4" height="28" rx="6"/><text x="106.0" y="980.0">TrafficSourceChart</text><rect class="badge" x="251.4" y="972.0" width="16" height="16" rx="3"/><text class="badge-text" x="259.4" y="980.5">C</text><rect class="badge" x="271.4" y="972.0" width="16" height="16" rx="3"/><text class="badge-text" x="279.4" y="980.5">P</text></g>
<g class="comp"><rect x="120.0" y="1004.0" width="148.3" height="28" rx="6"/><text x="132.0" y="1018.0">UploadStrip</text><rect class="badge" x="226.3" y="1010.0" width="16" height="16" rx="3"/><text class="badge-text" x="234.3" y="1018.5">C</text><rect class="badge" x="246.3" y="1010.0" width="16" height="16" rx="3"/><text class="badge-text" x="254.3" y="1018.5">P</text></g>
<g class="comp"><rect x="94.0" y="1042.0" width="99.2" height="28" rx="6"/><text x="106.0" y="1056.0">Tabs</text><rect class="badge" x="151.2" y="1048.0" width="16" height="16" rx="3"/><text class="badge-text" x="159.2" y="1056.5">C</text><rect class="badge" x="171.2" y="1048.0" width="16" height="16" rx="3"/><text class="badge-text" x="179.2" y="1056.5">P</text></g>
<g class="sub"><rect x="94.0" y="1080.0" width="235.9" height="28" rx="6"/><text x="106.0" y="1094.0">Traffic Sources sub-tab</text><rect class="badge" x="287.9" y="1086.0" width="16" height="16" rx="3"/><text class="badge-text" x="295.9" y="1094.5">C</text><rect class="badge" x="307.9" y="1086.0" width="16" height="16" rx="3"/><text class="badge-text" x="315.9" y="1094.5">P</text></g>
<g class="comp"><rect x="120.0" y="1118.0" width="206.7" height="28" rx="6"/><text x="132.0" y="1132.0">TrafficSourcesTable</text><rect class="badge" x="284.7" y="1124.0" width="16" height="16" rx="3"/><text class="badge-text" x="292.7" y="1132.5">C</text><rect class="badge" x="304.7" y="1124.0" width="16" height="16" rx="3"/><text class="badge-text" x="312.7" y="1132.5">P</text></g>
<g class="sub"><rect x="94.0" y="1156.0" width="330.8" height="28" rx="6"/><text x="106.0" y="1170.0">Top Videos by Traffic Source sub-tab</text><rect class="badge" x="382.8" y="1162.0" width="16" height="16" rx="3"/><text class="badge-text" x="390.8" y="1170.5">C</text><rect class="badge" x="402.8" y="1162.0" width="16" height="16" rx="3"/><text class="badge-text" x="410.8" y="1170.5">P</text></g>
<g class="comp"><rect x="120.0" y="1194.0" width="265.1" height="28" rx="6"/><text x="132.0" y="1208.0">TrafficSourceTopVideosPanel</text><rect class="badge" x="343.1" y="1200.0" width="16" height="16" rx="3"/><text class="badge-text" x="351.1" y="1208.5">C</text><rect class="badge" x="363.1" y="1200.0" width="16" height="16" rx="3"/><text class="badge-text" x="371.1" y="1208.5">P</text></g>
<g class="sub"><rect x="94.0" y="1232.0" width="235.9" height="28" rx="6"/><text x="106.0" y="1246.0">Search Insights sub-tab</text><rect class="badge" x="287.9" y="1238.0" width="16" height="16" rx="3"/><text class="badge-text" x="295.9" y="1246.5">C</text><rect class="badge" x="307.9" y="1238.0" width="16" height="16" rx="3"/><text class="badge-text" x="315.9" y="1246.5">P</text></g>
<g class="comp"><rect x="120.0" y="1270.0" width="214.0" height="28" rx="6"/><text x="132.0" y="1284.0">SearchTermsDonutCard</text><rect class="badge" x="292.0" y="1276.0" width="16" height="16" rx="3"/><text class="badge-text" x="300.0" y="1284.5">C</text><rect class="badge" x="312.0" y="1276.0" width="16" height="16" rx="3"/><text class="badge-text" x="320.0" y="1284.5">P</text></g>
<text class="note" x="452.9" y="1284.0">Top Search Terms</text>
<g class="comp"><rect x="120.0" y="1308.0" width="214.0" height="28" rx="6"/><text x="132.0" y="1322.0">SearchTermsDonutCard</text><rect class="badge" x="292.0" y="1314.0" width="16" height="16" rx="3"/><text class="badge-text" x="300.0" y="1322.5">C</text><rect class="badge" x="312.0" y="1314.0" width="16" height="16" rx="3"/><text class="badge-text" x="320.0" y="1322.5">P</text></g>
<text class="note" x="452.9" y="1322.0">Top Search Terms — Videos</text>
<g class="comp"><rect x="120.0" y="1346.0" width="214.0" height="28" rx="6"/><text x="132.0" y="1360.0">SearchTermsDonutCard</text><rect class="badge" x="292.0" y="1352.0" width="16" height="16" rx="3"/><text class="badge-text" x="300.0" y="1360.5">C</text><rect class="badge" x="312.0" y="1352.0" width="16" height="16" rx="3"/><text class="badge-text" x="320.0" y="1360.5">P</text></g>
<text class="note" x="452.9" y="1360.0">Top Search Terms — Shorts</text>
<g class="comp"><rect x="120.0" y="1384.0" width="250.5" height="28" rx="6"/><text x="132.0" y="1398.0">SearchTermVideosDonutCard</text><rect class="badge" x="328.5" y="1390.0" width="16" height="16" rx="3"/><text class="badge-text" x="336.5" y="1398.5">C</text><rect class="badge" x="348.5" y="1390.0" width="16" height="16" rx="3"/><text class="badge-text" x="356.5" y="1398.5">P</text></g>
<text class="note" x="452.9" y="1398.0">Top Videos by Search Term</text>
<g class="comp"><rect x="120.0" y="1422.0" width="250.5" height="28" rx="6"/><text x="132.0" y="1436.0">SearchTermVideosDonutCard</text><rect class="badge" x="328.5" y="1428.0" width="16" height="16" rx="3"/><text class="badge-text" x="336.5" y="1436.5">C</text><rect class="badge" x="348.5" y="1428.0" width="16" height="16" rx="3"/><text class="badge-text" x="356.5" y="1436.5">P</text></g>
<text class="note" x="452.9" y="1436.0">Top Shorts by Search Term</text>
<g class="sub"><rect x="94.0" y="1460.0" width="228.6" height="28" rx="6"/><text x="106.0" y="1474.0">Related Videos sub-tab</text><rect class="badge" x="280.6" y="1466.0" width="16" height="16" rx="3"/><text class="badge-text" x="288.6" y="1474.5">C</text><rect class="badge" x="300.6" y="1466.0" width="16" height="16" rx="3"/><text class="badge-text" x="308.6" y="1474.5">P</text></g>
<g class="comp"><rect x="120.0" y="1498.0" width="272.4" height="28" rx="6"/><text x="132.0" y="1512.0">RelatedReferrerBreakdownCard</text><rect class="badge" x="350.4" y="1504.0" width="16" height="16" rx="3"/><text class="badge-text" x="358.4" y="1512.5">C</text><rect class="badge" x="370.4" y="1504.0" width="16" height="16" rx="3"/><text class="badge-text" x="378.4" y="1512.5">P</text></g>
<text class="note" x="452.9" y="1512.0">Related Traffic from My Channel</text>
<g class="comp"><rect x="120.0" y="1536.0" width="272.4" height="28" rx="6"/><text x="132.0" y="1550.0">RelatedReferrerBreakdownCard</text><rect class="badge" x="350.4" y="1542.0" width="16" height="16" rx="3"/><text class="badge-text" x="358.4" y="1550.5">C</text><rect class="badge" x="370.4" y="1542.0" width="16" height="16" rx="3"/><text class="badge-text" x="378.4" y="1550.5">P</text></g>
<text class="note" x="452.9" y="1550.0">Related Traffic from Other Channels</text>
<g class="comp"><rect x="120.0" y="1574.0" width="308.9" height="28" rx="6"/><text x="132.0" y="1588.0">RelatedDestinationsByReferrerCard</text><rect class="badge" x="386.9" y="1580.0" width="16" height="16" rx="3"/><text class="badge-text" x="394.9" y="1588.5">C</text><rect class="badge" x="406.9" y="1580.0" width="16" height="16" rx="3"/><text class="badge-text" x="414.9" y="1588.5">P</text></g>
<text class="note" x="452.9" y="1588.0">Top Destinations — My Channel</text>
<g class="comp"><rect x="120.0" y="1612.0" width="308.9" height="28" rx="6"/><text x="132.0" y="1626.0">RelatedDestinationsByReferrerCard</text><rect class="badge" x="386.9" y="1618.0" width="16" height="16" rx="3"/><text class="badge-text" x="394.9" y="1626.5">C</text><rect class="badge" x="406.9" y="1618.0" width="16" height="16" rx="3"/><text class="badge-text" x="414.9" y="1626.5">P</text></g>
<text class="note" x="452.9" y="1626.0">Top Destinations — Other Channels</text>
<g class="comp"><rect x="68.0" y="1650.0" width="179.4" height="28" rx="6"/><text x="80.0" y="1664.0">TrafficSourceChart</text><rect class="badge" x="225.4" y="1656.0" width="16" height="16" rx="3"/><text class="badge-text" x="233.4" y="1664.5">V</text></g>
<g class="comp"><rect x="94.0" y="1688.0" width="128.3" height="28" rx="6"/><text x="106.0" y="1702.0">UploadStrip</text><rect class="badge" x="200.3" y="1694.0" width="16" height="16" rx="3"/><text class="badge-text" x="208.3" y="1702.5">V</text></g>
<g class="comp"><rect x="68.0" y="1726.0" width="79.2" height="28" rx="6"/><text x="80.0" y="1740.0">Tabs</text><rect class="badge" x="125.2" y="1732.0" width="16" height="16" rx="3"/><text class="badge-text" x="133.2" y="1740.5">V</text></g>
<g class="sub"><rect x="68.0" y="1764.0" width="215.9" height="28" rx="6"/><text x="80.0" y="1778.0">Traffic Sources sub-tab</text><rect class="badge" x="261.9" y="1770.0" width="16" height="16" rx="3"/><text class="badge-text" x="269.9" y="1778.5">V</text></g>
<g class="comp"><rect x="94.0" y="1802.0" width="186.7" height="28" rx="6"/><text x="106.0" y="1816.0">TrafficSourcesTable</text><rect class="badge" x="258.7" y="1808.0" width="16" height="16" rx="3"/><text class="badge-text" x="266.7" y="1816.5">V</text></g>
<g class="sub"><rect x="68.0" y="1840.0" width="215.9" height="28" rx="6"/><text x="80.0" y="1854.0">Search Insights sub-tab</text><rect class="badge" x="261.9" y="1846.0" width="16" height="16" rx="3"/><text class="badge-text" x="269.9" y="1854.5">V</text></g>
<g class="comp"><rect x="94.0" y="1878.0" width="194.0" height="28" rx="6"/><text x="106.0" y="1892.0">SearchTermsDonutCard</text><rect class="badge" x="266.0" y="1884.0" width="16" height="16" rx="3"/><text class="badge-text" x="274.0" y="1892.5">V</text></g>
<text class="note" x="452.9" y="1892.0">Top Search Terms</text>
<g class="sub"><rect x="68.0" y="1916.0" width="208.6" height="28" rx="6"/><text x="80.0" y="1930.0">Related Videos sub-tab</text><rect class="badge" x="254.6" y="1922.0" width="16" height="16" rx="3"/><text class="badge-text" x="262.6" y="1930.5">V</text></g>
<g class="comp"><rect x="94.0" y="1954.0" width="252.4" height="28" rx="6"/><text x="106.0" y="1968.0">RelatedReferrerBreakdownCard</text><rect class="badge" x="324.4" y="1960.0" width="16" height="16" rx="3"/><text class="badge-text" x="332.4" y="1968.5">V</text></g>
<text class="note" x="452.9" y="1968.0">Related Traffic from My Channel</text>
<g class="comp"><rect x="94.0" y="1992.0" width="252.4" height="28" rx="6"/><text x="106.0" y="2006.0">RelatedReferrerBreakdownCard</text><rect class="badge" x="324.4" y="1998.0" width="16" height="16" rx="3"/><text class="badge-text" x="332.4" y="2006.5">V</text></g>
<text class="note" x="452.9" y="2006.0">Related Traffic from Other Channels</text>
<g class="comp"><rect x="94.0" y="2030.0" width="288.9" height="28" rx="6"/><text x="106.0" y="2044.0">RelatedDestinationsByReferrerCard</text><rect class="badge" x="360.9" y="2036.0" width="16" height="16" rx="3"/><text class="badge-text" x="368.9" y="2044.5">V</text></g>
<text class="note" x="452.9" y="2044.0">Top Destinations From This Video</text>
<g class="tab"><rect x="42.0" y="2068.0" width="180.9" height="28" rx="6"/><text x="54.0" y="2082.0">Comments tab</text><rect class="badge" x="160.9" y="2074.0" width="16" height="16" rx="3"/><text class="badge-text" x="168.9" y="2082.5">C</text><rect class="badge" x="180.9" y="2074.0" width="16" height="16" rx="3"/><text class="badge-text" x="188.9" y="2082.5">P</text><rect class="badge" x="200.9" y="2074.0" width="16" height="16" rx="3"/><text class="badge-text" x="208.9" y="2082.5">V</text></g>
<g class="comp"><rect x="68.0" y="2106.0" width="170.3" height="28" rx="6"/><text x="80.0" y="2120.0">CommentsTab</text><rect class="badge" x="176.3" y="2112.0" width="16" height="16" rx="3"/><text class="badge-text" x="184.3" y="2120.5">C</text><rect class="badge" x="196.3" y="2112.0" width="16" height="16" rx="3"/><text class="badge-text" x="204.3" y="2120.5">P</text><rect class="badge" x="216.3" y="2112.0" width="16" height="16" rx="3"/><text class="badge-text" x="224.3" y="2120.5">V</text></g>
<g class="comp"><rect x="94.0" y="2144.0" width="155.7" height="28" rx="6"/><text x="106.0" y="2158.0">FilterBar</text><rect class="badge" x="187.7" y="2150.0" width="16" height="16" rx="3"/><text class="badge-text" x="195.7" y="2158.5">C</text><rect class="badge" x="207.7" y="2150.0" width="16" height="16" rx="3"/><text class="badge-text" x="215.7" y="2158.5">P</text><rect class="badge" x="227.7" y="2150.0" width="16" height="16" rx="3"/><text class="badge-text" x="235.7" y="2158.5">V</text></g>
<g class="comp"><rect x="120.0" y="2182.0" width="194.1" height="28" rx="6"/><text x="132.0" y="2196.0">ContentTypeSelect</text><rect class="badge" x="272.1" y="2188.0" width="16" height="16" rx="3"/><text class="badge-text" x="280.1" y="2196.5">C</text><rect class="badge" x="292.1" y="2188.0" width="16" height="16" rx="3"/><text class="badge-text" x="300.1" y="2196.5">P</text></g>
<g class="comp"><rect x="94.0" y="2220.0" width="163.0" height="28" rx="6"/><text x="106.0" y="2234.0">Pagination</text><rect class="badge" x="195.0" y="2226.0" width="16" height="16" rx="3"/><text class="badge-text" x="203.0" y="2234.5">C</text><rect class="badge" x="215.0" y="2226.0" width="16" height="16" rx="3"/><text class="badge-text" x="223.0" y="2234.5">P</text><rect class="badge" x="235.0" y="2226.0" width="16" height="16" rx="3"/><text class="badge-text" x="243.0" y="2234.5">V</text></g>
<g class="tab"><rect x="42.0" y="2258.0" width="125.4" height="28" rx="6"/><text x="54.0" y="2272.0">Videos tab</text><rect class="badge" x="145.4" y="2264.0" width="16" height="16" rx="3"/><text class="badge-text" x="153.4" y="2272.5">P</text></g>
<g class="comp"><rect x="68.0" y="2296.0" width="121.0" height="28" rx="6"/><text x="80.0" y="2310.0">VideoTable</text><rect class="badge" x="167.0" y="2302.0" width="16" height="16" rx="3"/><text class="badge-text" x="175.0" y="2310.5">P</text></g>
<g class="comp"><rect x="94.0" y="2334.0" width="115.7" height="28" rx="6"/><text x="106.0" y="2348.0">FilterBar</text><rect class="badge" x="187.7" y="2340.0" width="16" height="16" rx="3"/><text class="badge-text" x="195.7" y="2348.5">P</text></g>
<g class="comp"><rect x="120.0" y="2372.0" width="135.6" height="28" rx="6"/><text x="132.0" y="2386.0">PeriodSelect</text><rect class="badge" x="233.6" y="2378.0" width="16" height="16" rx="3"/><text class="badge-text" x="241.6" y="2386.5">P</text></g>
<g class="comp"><rect x="120.0" y="2410.0" width="174.1" height="28" rx="6"/><text x="132.0" y="2424.0">ContentTypeSelect</text><rect class="badge" x="272.1" y="2416.0" width="16" height="16" rx="3"/><text class="badge-text" x="280.1" y="2424.5">P</text></g>
<g class="comp"><rect x="94.0" y="2448.0" width="123.0" height="28" rx="6"/><text x="106.0" y="2462.0">Pagination</text><rect class="badge" x="195.0" y="2454.0" width="16" height="16" rx="3"/><text class="badge-text" x="203.0" y="2462.5">P</text></g>
<g aria-hidden="true">
<g class="comp"><rect x="16.0" y="2507" width="22" height="14" rx="3"/></g>
<text class="legend-text" x="44.0" y="2514">Shared component</text>
<g class="local"><rect x="171.2" y="2507" width="22" height="14" rx="3"/></g>
<text class="legend-text" x="199.2" y="2514">Defined in the page file</text>
<g><rect class="badge" x="378.0" y="2506.0" width="16" height="16" rx="3"/><text class="badge-text" x="386.0" y="2514.5">C</text></g>
<text class="legend-text" x="400.0" y="2514">channel page</text>
<g><rect class="badge" x="501.4" y="2506.0" width="16" height="16" rx="3"/><text class="badge-text" x="509.4" y="2514.5">P</text></g>
<text class="legend-text" x="523.4" y="2514">playlist page</text>
<g><rect class="badge" x="631.2" y="2506.0" width="16" height="16" rx="3"/><text class="badge-text" x="639.2" y="2514.5">V</text></g>
<text class="legend-text" x="653.2" y="2514">video page</text>
</g>
</svg>
