<svg xmlns="http://www.w3.org/2000/svg" width="1231" height="710" viewBox="0 0 1231 710" role="img" aria-label="Components on the PlaylistAnalytics page">
<title>Components on the PlaylistAnalytics page</title>

<style>
  .bg { fill: #ffffff; }
  text { font-family: system-ui, -apple-system, "Segoe UI", Roboto, Arial, sans-serif; font-size: 13px; dominant-baseline: central; }
  .edge { fill: none; stroke: #9aa3b2; stroke-width: 1.5; }
  .page rect { fill: #fbe9e8; stroke: #c4302b; stroke-width: 1.5; }
  .page text { fill: #c4302b; font-weight: 700; }
  .tab rect { fill: #e6effa; stroke: #2f6fb3; stroke-width: 1.2; }
  .tab text { fill: #1f4f85; font-weight: 600; }
  .sub rect { fill: #f3f7fc; stroke: #7da3cf; stroke-width: 1; stroke-dasharray: 4 3; }
  .sub text { fill: #1f4f85; }
  .comp rect { fill: #efe9fa; stroke: #6a4bb3; stroke-width: 1.2; }
  .comp text { fill: #3f2a80; }
  .local rect { fill: #f0f2f5; stroke: #8a93a3; stroke-width: 1; stroke-dasharray: 4 3; }
  .local text { fill: #1c2330; font-style: italic; }
  @media (prefers-color-scheme: dark) {
    .bg { fill: #1a1f27; }
    .edge { stroke: #5b6475; }
    .page rect { fill: #3a1e1d; stroke: #ff6b63; } .page text { fill: #ff8a80; }
    .tab rect { fill: #1b2a3d; stroke: #7db3ef; } .tab text { fill: #a9cdf5; }
    .sub rect { fill: #17212e; stroke: #4f79a8; } .sub text { fill: #a9cdf5; }
    .comp rect { fill: #2a2340; stroke: #b9a2f5; } .comp text { fill: #d6c9fb; }
    .local rect { fill: #222833; stroke: #6b7486; } .local text { fill: #e6e9ef; }
  }
  .legend-text { font-size: 12px; fill: #5b6475; }
  @media (prefers-color-scheme: dark) { .legend-text { fill: #9aa3b2; } }
</style>
<rect class="bg" width="1231" height="710" rx="10"/>
<path class="edge" d="M670.1,31.0 H692.1 V31.0 H714.1"/>
<path class="edge" d="M840.3,111.0 H862.3 V111.0 H928.1"/>
<path class="edge" d="M516.8,151.0 H538.8 V71.0 H714.1"/>
<path class="edge" d="M516.8,151.0 H538.8 V111.0 H714.1"/>
<path class="edge" d="M516.8,151.0 H538.8 V151.0 H714.1"/>
<path class="edge" d="M516.8,151.0 H538.8 V191.0 H714.1"/>
<path class="edge" d="M516.8,151.0 H538.8 V231.0 H714.1"/>
<path class="edge" d="M869.5,311.0 H891.5 V311.0 H928.1"/>
<path class="edge" d="M789.2,351.0 H811.2 V351.0 H928.1"/>
<path class="edge" d="M811.1,391.0 H833.1 V391.0 H928.1"/>
<path class="edge" d="M781.9,451.0 H803.9 V431.0 H928.1"/>
<path class="edge" d="M781.9,451.0 H803.9 V471.0 H928.1"/>
<path class="edge" d="M789.2,531.0 H811.2 V511.0 H928.1"/>
<path class="edge" d="M789.2,531.0 H811.2 V551.0 H928.1"/>
<path class="edge" d="M560.6,401.0 H582.6 V271.0 H714.1"/>
<path class="edge" d="M560.6,401.0 H582.6 V311.0 H714.1"/>
<path class="edge" d="M560.6,401.0 H582.6 V351.0 H714.1"/>
<path class="edge" d="M560.6,401.0 H582.6 V391.0 H714.1"/>
<path class="edge" d="M560.6,401.0 H582.6 V451.0 H714.1"/>
<path class="edge" d="M560.6,401.0 H582.6 V531.0 H714.1"/>
<path class="edge" d="M509.5,591.0 H531.5 V591.0 H714.1"/>
<path class="edge" d="M811.1,631.0 H833.1 V631.0 H928.1"/>
<path class="edge" d="M494.9,631.0 H516.9 V631.0 H714.1"/>
<path class="edge" d="M353.9,331.0 H375.9 V31.0 H397.9"/>
<path class="edge" d="M353.9,331.0 H375.9 V151.0 H397.9"/>
<path class="edge" d="M353.9,331.0 H375.9 V401.0 H397.9"/>
<path class="edge" d="M353.9,331.0 H375.9 V591.0 H397.9"/>
<path class="edge" d="M353.9,331.0 H375.9 V631.0 H397.9"/>
<g class="comp"><rect x="714.1" y="16.0" width="111.6" height="30" rx="6"/><text x="726.1" y="31.0">PeriodSelect</text></g>
<g class="tab"><rect x="397.9" y="16.0" width="272.2" height="30" rx="6"/><text x="409.9" y="31.0">Analytics and Traffic Sources tabs</text></g>
<g class="comp"><rect x="714.1" y="56.0" width="118.9" height="30" rx="6"/><text x="726.1" y="71.0">VideoStatsBar</text></g>
<g class="comp"><rect x="928.1" y="96.0" width="104.3" height="30" rx="6"/><text x="940.1" y="111.0">UploadStrip</text></g>
<g class="comp"><rect x="714.1" y="96.0" width="126.2" height="30" rx="6"/><text x="726.1" y="111.0">AnalyticsChart</text></g>
<g class="comp"><rect x="714.1" y="136.0" width="118.9" height="30" rx="6"/><text x="726.1" y="151.0">TopVideosList</text></g>
<g class="comp"><rect x="714.1" y="176.0" width="170.0" height="30" rx="6"/><text x="726.1" y="191.0">TopPerformersCard ×2</text></g>
<g class="comp"><rect x="714.1" y="216.0" width="170.0" height="30" rx="6"/><text x="726.1" y="231.0">VideoCarouselCard ×2</text></g>
<g class="tab"><rect x="397.9" y="136.0" width="118.9" height="30" rx="6"/><text x="409.9" y="151.0">Analytics tab</text></g>
<g class="comp"><rect x="714.1" y="256.0" width="118.9" height="30" rx="6"/><text x="726.1" y="271.0">VideoStatsBar</text></g>
<g class="comp"><rect x="928.1" y="296.0" width="104.3" height="30" rx="6"/><text x="940.1" y="311.0">UploadStrip</text></g>
<g class="comp"><rect x="714.1" y="296.0" width="155.4" height="30" rx="6"/><text x="726.1" y="311.0">TrafficSourceChart</text></g>
<g class="comp"><rect x="928.1" y="336.0" width="162.7" height="30" rx="6"/><text x="940.1" y="351.0">TrafficSourcesTable</text></g>
<g class="sub"><rect x="714.1" y="336.0" width="75.1" height="30" rx="6"/><text x="726.1" y="351.0">Sources</text></g>
<g class="comp"><rect x="928.1" y="376.0" width="221.1" height="30" rx="6"/><text x="940.1" y="391.0">TrafficSourceTopVideosPanel</text></g>
<g class="sub"><rect x="714.1" y="376.0" width="97.0" height="30" rx="6"/><text x="726.1" y="391.0">Top videos</text></g>
<g class="comp"><rect x="928.1" y="416.0" width="191.9" height="30" rx="6"/><text x="940.1" y="431.0">SearchTermsDonutCard ×3</text></g>
<g class="comp"><rect x="928.1" y="456.0" width="228.4" height="30" rx="6"/><text x="940.1" y="471.0">SearchTermVideosDonutCard ×2</text></g>
<g class="sub"><rect x="714.1" y="436.0" width="67.8" height="30" rx="6"/><text x="726.1" y="451.0">Search</text></g>
<g class="comp"><rect x="928.1" y="496.0" width="250.3" height="30" rx="6"/><text x="940.1" y="511.0">RelatedReferrerBreakdownCard ×2</text></g>
<g class="comp"><rect x="928.1" y="536.0" width="286.8" height="30" rx="6"/><text x="940.1" y="551.0">RelatedDestinationsByReferrerCard ×2</text></g>
<g class="sub"><rect x="714.1" y="516.0" width="75.1" height="30" rx="6"/><text x="726.1" y="531.0">Related</text></g>
<g class="tab"><rect x="397.9" y="386.0" width="162.7" height="30" rx="6"/><text x="409.9" y="401.0">Traffic Sources tab</text></g>
<g class="comp"><rect x="714.1" y="576.0" width="118.9" height="30" rx="6"/><text x="726.1" y="591.0">CommentsPanel</text></g>
<g class="tab"><rect x="397.9" y="576.0" width="111.6" height="30" rx="6"/><text x="409.9" y="591.0">Comments tab</text></g>
<g class="comp"><rect x="928.1" y="616.0" width="111.6" height="30" rx="6"/><text x="940.1" y="631.0">PeriodSelect</text></g>
<g class="comp"><rect x="714.1" y="616.0" width="97.0" height="30" rx="6"/><text x="726.1" y="631.0">VideoTable</text></g>
<g class="tab"><rect x="397.9" y="616.0" width="97.0" height="30" rx="6"/><text x="409.9" y="631.0">Videos tab</text></g>
<g class="page"><rect x="16.0" y="316.0" width="337.9" height="30" rx="6"/><text x="28.0" y="331.0">PlaylistAnalytics  /analytics/playlists/:id</text></g>
<path class="edge" d="M16.0,689.0 H38.0"/>
<text class="legend-text" x="44.0" y="689.0">contains</text>
<g class="page"><rect x="117.6" y="682.0" width="22" height="14" rx="3"/></g>
<text class="legend-text" x="145.6" y="689.0">Page</text>
<g class="tab"><rect x="192.4" y="682.0" width="22" height="14" rx="3"/></g>
<text class="legend-text" x="220.4" y="689.0">Page section or tab</text>
<g class="sub"><rect x="367.7" y="682.0" width="22" height="14" rx="3"/></g>
<text class="legend-text" x="395.7" y="689.0">Sub-tab</text>
<g class="comp"><rect x="462.6" y="682.0" width="22" height="14" rx="3"/></g>
<text class="legend-text" x="490.6" y="689.0">Shared component</text>
</svg>
