<svg xmlns="http://www.w3.org/2000/svg" width="1109" height="414" viewBox="0 0 1109 414" role="img" aria-label="Routes used by the playlist Traffic Sources tab">
<title>Routes used by the playlist Traffic Sources tab</title>

<style>
  .bg { fill: #ffffff; }
  text { font-family: system-ui, -apple-system, "Segoe UI", Roboto, Arial, sans-serif; font-size: 13px; dominant-baseline: central; }
  .mono { font-family: ui-monospace, SFMono-Regular, Menlo, Consolas, monospace; font-size: 12px; }
  .edge { fill: none; stroke: #9aa3b2; stroke-width: 1.5; }
  .edge-label { font-size: 11.5px; font-style: italic; fill: #5b6475; }
  .root rect { fill: #fbe9e8; stroke: #c4302b; stroke-width: 1.5; } .root text { fill: #c4302b; font-weight: 700; }
  .card rect { fill: #e6effa; stroke: #2f6fb3; stroke-width: 1.2; } .card text { fill: #1f4f85; font-weight: 600; }
  .sub rect { fill: #f3f7fc; stroke: #7da3cf; stroke-width: 1; stroke-dasharray: 4 3; } .sub text { fill: #1f4f85; }
  .ep rect { fill: #efe9fa; stroke: #6a4bb3; stroke-width: 1.2; } .ep text { fill: #3f2a80; }
  .ep-tab rect { fill: #fff4d6; stroke: #b08b3a; stroke-width: 1.2; stroke-dasharray: 5 3; } .ep-tab text { fill: #6b4f00; }
  .ep-after rect { fill: #ffffff; stroke: #6a4bb3; stroke-width: 1.2; stroke-dasharray: 5 3; } .ep-after text { fill: #3f2a80; }
  @media (prefers-color-scheme: dark) {
    .bg { fill: #1a1f27; } .edge { stroke: #5b6475; } .edge-label { fill: #9aa3b2; }
    .root rect { fill: #3a1e1d; stroke: #ff6b63; } .root text { fill: #ff8a80; }
    .card rect { fill: #1b2a3d; stroke: #7db3ef; } .card text { fill: #a9cdf5; }
    .sub rect { fill: #17212e; stroke: #4f79a8; } .sub text { fill: #a9cdf5; }
    .ep rect { fill: #2a2340; stroke: #b9a2f5; } .ep text { fill: #d6c9fb; }
    .ep-tab rect { fill: #362d12; stroke: #c9a24a; } .ep-tab text { fill: #f2d98a; }
    .ep-after rect { fill: #1a1f27; stroke: #b9a2f5; } .ep-after text { fill: #d6c9fb; }
  }
  .legend-text { font-size: 12px; fill: #5b6475; }
  .legend-rule { stroke: #d9dee6; stroke-width: 1; }
  @media (prefers-color-scheme: dark) { .legend-text { fill: #9aa3b2; } .legend-rule { stroke: #2f3744; } }
</style>
<rect class="bg" width="1109" height="414" rx="10"/>
<path class="edge" d="M305.6,31.0 H323.6 V31.0 H374.4"/>
<path class="edge" d="M334.4,91.0 H352.4 V71.0 H374.4"/>
<path class="edge" d="M334.4,91.0 H352.4 V111.0 H374.4"/>
<path class="edge" d="M291.2,151.0 H309.2 V151.0 H374.4"/>
<path class="edge" d="M312.8,191.0 H330.8 V191.0 H374.4"/>
<path class="edge" d="M284.0,251.0 H302.0 V231.0 H374.4"/>
<path class="edge" d="M284.0,251.0 H302.0 V271.0 H374.4"/>
<path class="edge" d="M789.9,311.0 H807.9 V311.0 H829.9"/>
<path class="edge" d="M291.2,311.0 H309.2 V311.0 H374.4"/>
<path class="edge" d="M176.8,171.0 H194.8 V31.0 H216.8"/>
<path class="edge" d="M176.8,171.0 H194.8 V91.0 H216.8"/>
<path class="edge" d="M176.8,171.0 H194.8 V151.0 H216.8"/>
<path class="edge" d="M176.8,171.0 H194.8 V191.0 H216.8"/>
<path class="edge" d="M176.8,171.0 H194.8 V251.0 H216.8"/>
<path class="edge" d="M176.8,171.0 H194.8 V311.0 H216.8"/>
<g class="ep"><rect x="374.4" y="16.0" width="227.0" height="30" rx="6"/><text class="mono" x="386.4" y="31.0">/playlists/{id}/videos/stats</text></g>
<g class="card"><rect x="216.8" y="16.0" width="88.8" height="30" rx="6"/><text x="228.8" y="31.0">Stats bar</text></g>
<g class="ep"><rect x="374.4" y="56.0" width="321.2" height="30" rx="6"/><text class="mono" x="386.4" y="71.0">/analytics/playlists/{id}/traffic-sources</text></g>
<g class="ep"><rect x="374.4" y="96.0" width="270.5" height="30" rx="6"/><text class="mono" x="386.4" y="111.0">/videos/published  (this playlist)</text></g>
<g class="card"><rect x="216.8" y="76.0" width="117.6" height="30" rx="6"/><text x="228.8" y="91.0">Traffic chart</text></g>
<g class="ep"><rect x="374.4" y="136.0" width="321.2" height="30" rx="6"/><text class="mono" x="386.4" y="151.0">/analytics/playlists/{id}/traffic-sources</text></g>
<g class="sub"><rect x="216.8" y="136.0" width="74.4" height="30" rx="6"/><text x="228.8" y="151.0">Sources</text></g>
<g class="ep"><rect x="374.4" y="176.0" width="350.2" height="30" rx="6"/><text class="mono" x="386.4" y="191.0">/analytics/playlists/{id}/traffic-sources/top</text></g>
<g class="sub"><rect x="216.8" y="176.0" width="96.0" height="30" rx="6"/><text x="228.8" y="191.0">Top videos</text></g>
<g class="ep"><rect x="374.4" y="216.0" width="350.2" height="30" rx="6"/><text class="mono" x="386.4" y="231.0">/analytics/playlists/{id}/search-insights  ×3</text></g>
<g class="ep"><rect x="374.4" y="256.0" width="227.0" height="30" rx="6"/><text class="mono" x="386.4" y="271.0">…/search-insights/videos  ×2</text></g>
<g class="sub"><rect x="216.8" y="236.0" width="67.2" height="30" rx="6"/><text x="228.8" y="251.0">Search</text></g>
<g class="ep-after"><rect x="829.9" y="296.0" width="263.2" height="30" rx="6"/><text class="mono" x="841.9" y="311.0">…/related-videos/destinations  ×2</text></g>
<g class="ep-tab"><rect x="374.4" y="296.0" width="415.5" height="30" rx="6"/><text class="mono" x="386.4" y="311.0">/analytics/playlists/{id}/related-videos/referrers  ×2</text></g>
<g class="sub"><rect x="216.8" y="296.0" width="74.4" height="30" rx="6"/><text x="228.8" y="311.0">Related</text></g>
<g class="root"><rect x="16.0" y="156.0" width="160.8" height="30" rx="6"/><text x="28.0" y="171.0">Traffic Sources tab</text></g>
<line class="legend-rule" x1="16" y1="348.0" x2="1093.0" y2="348.0"/>
<g class="root"><rect x="16.0" y="362.0" width="22" height="14" rx="3"/></g>
<text class="legend-text" x="44.0" y="369.0">Where it starts</text>
<g class="card"><rect x="164.5" y="362.0" width="22" height="14" rx="3"/></g>
<text class="legend-text" x="192.5" y="369.0">Card on the page</text>
<g class="sub"><rect x="319.7" y="362.0" width="22" height="14" rx="3"/></g>
<text class="legend-text" x="347.7" y="369.0">Sub-tab</text>
<g class="ep"><rect x="414.6" y="362.0" width="22" height="14" rx="3"/></g>
<text class="legend-text" x="442.6" y="369.0">Request sent when the page opens</text>
<g class="ep-tab"><rect x="677.0" y="362.0" width="22" height="14" rx="3"/></g>
<text class="legend-text" x="705.0" y="369.0">Request sent only when this tab is shown</text>
<g class="ep-after"><rect x="16.0" y="386.0" width="22" height="14" rx="3"/></g>
<text class="legend-text" x="44.0" y="393.0">Request sent once an earlier one comes back</text>
</svg>
